# xmcd
#
# Track frame offsets:
#  150
#  21047
#  42274
#  63777
#  87194
#  102335
#  124238
#  146621
#  166537
#  185984
#  203901
#  219765
#  236887
#  259315
#  278225
#  297374
#
# Disc length: 4215 seconds
#
# Revision: 0
# Processed by: cddbd v1.4PL0 Copyright (c) Steve Scherf et al.
# Submitted via: AltoMP3_Maker 3.0
#
DISCID=ed107510
DTITLE=F4等 - 明星大聚会（1）
DYEAR=1900
DGENRE=
TTITLE0=流星雨
TTITLE1=第一时间
TTITLE2=Make  A  Wish
TTITLE3=明明
TTITLE4=烂泥
TTITLE5=我好想
TTITLE6=而分之一的爱情
TTITLE7=唯一
TTITLE8=星晴
TTITLE9=蜗牛
TTITLE10=橄榄树
TTITLE11=忘忧草
TTITLE12=妹妹
TTITLE13=爱就爱了
TTITLE14=我一直站在被你伤害的地方
TTITLE15=冷酷
EXTD=
EXTT0=
EXTT1=
EXTT2=
EXTT3=
EXTT4=
EXTT5=
EXTT6=
EXTT7=
EXTT8=
EXTT9=
EXTT10=
EXTT11=
EXTT12=
EXTT13=
EXTT14=
EXTT15=
PLAYORDER=
